<svg xmlns="http://www.w3.org/2000/svg" width="177" height="35.086" viewBox="0 0 177 35.086">
  <g id="Logo-06" transform="translate(-6 -12.25)">
    <path id="Path_1278" data-name="Path 1278" d="M91.048,13.69V33.329h12.229v4.146H86.56V13.69Z" transform="translate(-34.675 -0.62)" fill="#0d5699"/>
    <path id="Path_1279" data-name="Path 1279" d="M136.979,34.172a8.361,8.361,0,0,1-8.732,8.732c-5.439,0-8.7-3.907-8.7-8.732a8.366,8.366,0,0,1,8.663-8.732A8.469,8.469,0,0,1,136.979,34.172Zm-13.282,0c0,2.552,1.526,4.927,4.557,4.927s4.557-2.375,4.557-4.927a4.712,4.712,0,0,0-4.557-4.961C125.257,29.211,123.7,31.66,123.7,34.172Z" transform="translate(-48.875 -5.677)" fill="#0d5699"/>
    <path id="Path_1280" data-name="Path 1280" d="M167.653,23.05l3.059,2.312-1.868,2.381a7.126,7.126,0,0,1,1.766,4.961c0,2.073-.78,5-3.531,6.265a5.654,5.654,0,0,1,3.463,5.542c0,4.619-3.531,7.473-8.39,7.473s-8.5-2.956-8.5-7.473h4.112c0,2.176,2,3.6,4.386,3.6s4.221-1.31,4.221-3.617-2.17-3.366-4.243-3.366c-5.234,0-8.5-3.2-8.5-8.424a8.178,8.178,0,0,1,8.5-8.5,6.692,6.692,0,0,1,3.839.951ZM157.765,32.7a4.375,4.375,0,1,0,8.732,0,4.379,4.379,0,1,0-8.732,0Z" transform="translate(-63.544 -4.649)" fill="#0d5699"/>
    <path id="Path_1281" data-name="Path 1281" d="M192.3,15.921c0,3.224-4.893,3.224-4.893,0S192.3,12.692,192.3,15.921Zm-4.522,4.653V37.394h4.146V20.575Z" transform="translate(-78.084 -0.539)" fill="#0d5699"/>
    <path id="Path_1282" data-name="Path 1282" d="M212.178,30.118a5.627,5.627,0,0,0-4.141-1.492c-1.971,0-3.059.609-3.059,1.663s.985,1.709,3.121,1.834c3.161.205,7.171.917,7.171,5.371,0,2.956-2.409,5.5-7.2,5.5a9.8,9.8,0,0,1-7.752-2.99l2.039-2.967a9.186,9.186,0,0,0,5.775,2.347c1.566.034,3.024-.78,3.024-2s-.951-1.629-3.326-1.766c-3.161-.239-6.932-1.4-6.932-5.2s3.987-5.234,7.068-5.234a9,9,0,0,1,6.522,2.21Z" transform="translate(-83.641 -5.565)" fill="#0d5699"/>
    <path id="Path_1283" data-name="Path 1283" d="M235.191,13.75V27.477l5.644-6.749H245.8v.239L239,28.633l7.78,8.544v.308h-5l-6.59-7.564V37.5H231.05V13.75Z" transform="translate(-96.868 -0.646)" fill="#ffb600"/>
    <path id="Path_1284" data-name="Path 1284" d="M266.084,13.75V37.5H262V13.75Z" transform="translate(-110.19 -0.646)" fill="#ffb600"/>
    <path id="Path_1285" data-name="Path 1285" d="M279.783,15.921c0,3.224-4.893,3.224-4.893,0S279.783,12.692,279.783,15.921Zm-4.517,4.653V37.394h4.146V20.575Z" transform="translate(-115.738 -0.539)" fill="#ffb600"/>
    <path id="Path_1286" data-name="Path 1286" d="M293.356,13.75V27.477L299,20.727h4.961v.239l-6.835,7.644,7.78,8.544v.308h-4.989l-6.556-7.541V37.5H289.21V13.75Z" transform="translate(-121.902 -0.646)" fill="#ffb600"/>
    <circle id="Ellipse_10" data-name="Ellipse 10" cx="13.886" cy="13.886" r="13.886" transform="translate(15.438 12.25)" fill="#fff"/>
    <path id="Path_1287" data-name="Path 1287" d="M38.592,15.718a12.531,12.531,0,0,1,8.236,4.625l2.956-1.589a13.1,13.1,0,0,0-20.5-.49h.028A12.5,12.5,0,0,1,38.592,15.718Z" transform="translate(-10.02 -0.563)" fill="#ffb600"/>
    <path id="Path_1288" data-name="Path 1288" d="M38.631,17.274a12.5,12.5,0,0,0-9.261,2.54,13.385,13.385,0,0,1,12.878,4.557l4.619-2.478A12.531,12.531,0,0,0,38.631,17.274Z" transform="translate(-10.059 -2.119)" fill="#fcd300"/>
    <path id="Path_1289" data-name="Path 1289" d="M60.178,23.49l-2.557,2.142a12.531,12.531,0,0,1-4.932,18.016l-.028.034A13.1,13.1,0,0,0,60.178,23.49Z" transform="translate(-20.084 -4.838)" fill="#40cc46"/>
    <path id="Path_1290" data-name="Path 1290" d="M55.273,38.921a13.3,13.3,0,0,1-2.563,6.345A12.531,12.531,0,0,0,57.642,27.25l-4.027,3.372a13.265,13.265,0,0,1,1.657,8.3Z" transform="translate(-20.105 -6.456)" fill="#6ce074"/>
    <path id="Path_1291" data-name="Path 1291" d="M29.29,21.816l-.04.046.068-.051Z" transform="translate(-10.007 -4.115)" fill="#143e91"/>
    <path id="Path_1292" data-name="Path 1292" d="M31.3,21.468a13.237,13.237,0,0,0-4.277.148l-.068.051a13.146,13.146,0,0,0-2.307,12.7l15.265-8.19a13.288,13.288,0,0,0-8.612-4.71Z" transform="translate(-7.716 -3.921)" fill="#c5f4ff"/>
    <path id="Path_1293" data-name="Path 1293" d="M52.51,58.974H52.6l.028-.034Z" transform="translate(-20.019 -20.097)" fill="#143e91"/>
    <path id="Path_1294" data-name="Path 1294" d="M45.8,41.469a13.265,13.265,0,0,0-1.657-8.3L30.69,44.425a13.151,13.151,0,0,0,12.428,3.417l.114-.057A13.3,13.3,0,0,0,45.8,41.469Z" transform="translate(-10.627 -9.005)" fill="#c5f4ff"/>
    <path id="Path_1295" data-name="Path 1295" d="M15.637,33.419,6,28.185l18.243-4.75,19.73-5.194L31.824,42.965,24.99,39.018l-6.14,6.436Z" transform="translate(0 -2.578)" fill="#fff"/>
    <path id="Path_1296" data-name="Path 1296" d="M52.128,20.71,29.22,44.723l1.441-8.116Z" transform="translate(-9.995 -3.641)" fill="#0f4388"/>
    <path id="Path_1297" data-name="Path 1297" d="M31.75,36.607l21.467-15.9L42.39,42.741Z" transform="translate(-11.084 -3.641)" fill="#0b69aa"/>
    <path id="Path_1298" data-name="Path 1298" d="M28.479,36.607l-1.441,8.116L24.15,33.89l25.8-13.18Z" transform="translate(-7.812 -3.641)" fill="#0d5699"/>
    <path id="Path_1299" data-name="Path 1299" d="M43.911,20.71,10.13,29.555l7.985,4.334Z" transform="translate(-1.778 -3.641)" fill="#02b6ee"/>
    <path id="Path_1300" data-name="Path 1300" d="M63.875,20.71,56.51,26.166,57.4,33.89Z" transform="translate(-21.741 -3.641)" fill="#0690cc"/>
    <path id="Path_1301" data-name="Path 1301" d="M46.741,38.013,31.75,40.73l14.1-10.44Z" transform="translate(-11.084 -7.765)" fill="#097cbb"/>
    <path id="Path_1302" data-name="Path 1302" d="M56.011,20.71l-8.447,4.317-9.324.365Z" transform="translate(-13.877 -3.641)" fill="#0690cc"/>
    <path id="Path_1303" data-name="Path 1303" d="M32.175,28.655l-8.025,8.5L41.5,28.29Z" transform="translate(-7.812 -6.904)" fill="#04a3dd"/>
  </g>
</svg>
